<svg width="200" height="144" viewBox="0 0 200 144" fill="none" xmlns="http://www.w3.org/2000/svg">
<path d="M14.2857 86.2862H207.143C209.078 86.2862 210.752 86.993 212.166 88.4067C213.579 89.8204 214.286 91.4945 214.286 93.429V143.429H185.715V114.858H14.2857V143.429H-14.2857V7.71437C-14.2857 5.77984 -13.5789 4.10572 -12.1652 2.69203C-10.7515 1.27833 -9.07739 0.57148 -7.14287 0.57148H7.14288C9.0774 0.57148 10.7515 1.27833 12.1652 2.69203C13.5789 4.10572 14.2857 5.77984 14.2857 7.71437V86.2862ZM78.5716 50.5717C78.5716 42.6848 75.7814 35.9511 70.201 30.3707C64.6207 24.7903 57.887 22.0001 50.0001 22.0001C42.1132 22.0001 35.3795 24.7903 29.7992 30.3707C24.2188 35.9511 21.4286 42.6848 21.4286 50.5717C21.4286 58.4586 24.2188 65.1923 29.7992 70.7727C35.3795 76.3531 42.1132 79.1433 50.0001 79.1433C57.887 79.1433 64.6207 76.3531 70.201 70.7727C75.7814 65.1923 78.5716 58.4586 78.5716 50.5717ZM214.286 79.1433V72.0004C214.286 60.17 210.101 50.0695 201.73 41.6989C193.36 33.3283 183.259 29.143 171.429 29.143H92.8573C90.9228 29.143 89.2487 29.8499 87.835 31.2636C86.4213 32.6773 85.7144 34.3514 85.7144 36.2859V79.1433H214.286Z" fill="#F97D09"/>
</svg>
