<svg width="254" height="127" viewBox="0 0 254 127" fill="none" xmlns="http://www.w3.org/2000/svg">
<path d="M199.172 102.438C202.206 102.438 204.665 99.9784 204.665 96.9444C204.665 93.9104 202.206 91.4508 199.172 91.4508C196.138 91.4508 193.678 93.9104 193.678 96.9444C193.678 99.9784 196.138 102.438 199.172 102.438Z" fill="#F97D09"/>
<path d="M55.9462 102.438C58.9803 102.438 61.4398 99.9784 61.4398 96.9444C61.4398 93.9104 58.9803 91.4508 55.9462 91.4508C52.9122 91.4508 50.4527 93.9104 50.4527 96.9444C50.4527 99.9784 52.9122 102.438 55.9462 102.438Z" fill="#F97D09"/>
<path d="M212.503 38.693L190.059 35.2648L183.456 28.0319C167.722 10.801 145.321 0.918213 121.99 0.918213H104.441C100.628 0.918213 96.8655 1.21889 93.1563 1.74998C93.0944 1.76122 93.0326 1.76684 92.9708 1.77808C71.0556 4.96181 51.3772 17.1432 38.7799 35.7959C16.4404 43.9421 0.406586 64.8626 0.406586 86.2017C0.406586 95.3455 7.84466 102.781 16.9856 102.781H26.6829C29.4058 116.454 41.4888 126.792 55.9519 126.792C70.4149 126.792 82.4979 116.454 85.2208 102.781H169.911C172.634 116.454 184.72 126.792 199.18 126.792C213.641 126.792 225.724 116.454 228.447 102.781H236.728C245.871 102.781 253.307 95.3455 253.307 86.2017C253.307 62.2858 236.149 42.3067 212.503 38.693ZM121.992 12.1582C141.845 12.1582 160.905 20.4449 174.472 34.9024H111.3L102.12 12.2313C102.893 12.206 103.666 12.1582 104.441 12.1582H121.992ZM90.5514 13.6082L99.1725 34.9024H53.7179C63.4321 23.9911 76.3272 16.5615 90.5514 13.6082ZM55.9519 115.552C45.6897 115.552 37.3412 107.204 37.3412 96.9444C37.3412 86.6822 45.6897 78.3337 55.9519 78.3337C66.214 78.3337 74.5625 86.6822 74.5625 96.9444C74.5625 107.206 66.214 115.552 55.9519 115.552ZM199.18 115.552C188.918 115.552 180.57 107.204 180.57 96.9444C180.57 86.6822 188.918 78.3337 199.18 78.3337C209.44 78.3337 217.788 86.6822 217.788 96.9444C217.788 107.206 209.442 115.552 199.18 115.552Z" fill="#F97D09"/>
</svg>
