<svg width="91" height="104" viewBox="0 0 91 104" fill="none" xmlns="http://www.w3.org/2000/svg">
<path d="M30.875 4.87501C30.875 2.17344 28.7016 0 26 0C23.2984 0 21.125 2.17344 21.125 4.87501V13H13C5.82969 13 0 18.8297 0 26.0001V29.2501V39.0001V91.0003C0 98.1706 5.82969 104 13 104H78C85.1703 104 91 98.1706 91 91.0003V39.0001V29.2501V26.0001C91 18.8297 85.1703 13 78 13H69.875V4.87501C69.875 2.17344 67.7016 0 65 0C62.2984 0 60.125 2.17344 60.125 4.87501V13H30.875V4.87501ZM9.75 39.0001H26V50.3751H9.75V39.0001ZM9.75 60.1252H26V73.1252H9.75V60.1252ZM35.75 60.1252H55.25V73.1252H35.75V60.1252ZM65 60.1252H81.25V73.1252H65V60.1252ZM81.25 50.3751H65V39.0001H81.25V50.3751ZM81.25 82.8752V91.0003C81.25 92.7878 79.7875 94.2503 78 94.2503H65V82.8752H81.25ZM55.25 82.8752V94.2503H35.75V82.8752H55.25ZM26 82.8752V94.2503H13C11.2125 94.2503 9.75 92.7878 9.75 91.0003V82.8752H26ZM55.25 50.3751H35.75V39.0001H55.25V50.3751Z" fill="#4E4E4E"/>
</svg>
