<svg width="150" height="150" viewBox="0 0 150 150" fill="none" xmlns="http://www.w3.org/2000/svg">
<g clip-path="url(#clip0_0_3)">
<path d="M0 9.375C0 4.18945 4.18945 0 9.375 0H140.625C145.811 0 150 4.18945 150 9.375C150 14.5605 145.811 18.75 140.625 18.75V131.25C145.811 131.25 150 135.439 150 140.625C150 145.811 145.811 150 140.625 150H89.0625V135.938C89.0625 128.174 82.7637 121.875 75 121.875C67.2363 121.875 60.9375 128.174 60.9375 135.938V150H9.375C4.18945 150 0 145.811 0 140.625C0 135.439 4.18945 131.25 9.375 131.25V18.75C4.18945 18.75 0 14.5605 0 9.375ZM28.125 32.8125V42.1875C28.125 44.7656 30.2344 46.875 32.8125 46.875H42.1875C44.7656 46.875 46.875 44.7656 46.875 42.1875V32.8125C46.875 30.2344 44.7656 28.125 42.1875 28.125H32.8125C30.2344 28.125 28.125 30.2344 28.125 32.8125ZM70.3125 28.125C67.7344 28.125 65.625 30.2344 65.625 32.8125V42.1875C65.625 44.7656 67.7344 46.875 70.3125 46.875H79.6875C82.2656 46.875 84.375 44.7656 84.375 42.1875V32.8125C84.375 30.2344 82.2656 28.125 79.6875 28.125H70.3125ZM103.125 32.8125V42.1875C103.125 44.7656 105.234 46.875 107.812 46.875H117.188C119.766 46.875 121.875 44.7656 121.875 42.1875V32.8125C121.875 30.2344 119.766 28.125 117.188 28.125H107.812C105.234 28.125 103.125 30.2344 103.125 32.8125ZM32.8125 56.25C30.2344 56.25 28.125 58.3594 28.125 60.9375V70.3125C28.125 72.8906 30.2344 75 32.8125 75H42.1875C44.7656 75 46.875 72.8906 46.875 70.3125V60.9375C46.875 58.3594 44.7656 56.25 42.1875 56.25H32.8125ZM65.625 60.9375V70.3125C65.625 72.8906 67.7344 75 70.3125 75H79.6875C82.2656 75 84.375 72.8906 84.375 70.3125V60.9375C84.375 58.3594 82.2656 56.25 79.6875 56.25H70.3125C67.7344 56.25 65.625 58.3594 65.625 60.9375ZM107.812 56.25C105.234 56.25 103.125 58.3594 103.125 60.9375V70.3125C103.125 72.8906 105.234 75 107.812 75H117.188C119.766 75 121.875 72.8906 121.875 70.3125V60.9375C121.875 58.3594 119.766 56.25 117.188 56.25H107.812ZM96.0938 112.5C99.9902 112.5 103.213 109.307 102.246 105.527C99.1406 93.3691 88.125 84.375 75 84.375C61.875 84.375 50.8301 93.3691 47.7539 105.527C46.7871 109.277 50.0391 112.5 53.9062 112.5H96.0938Z" fill="#F97D09"/>
</g>
<defs>
<clipPath id="clip0_0_3">
<rect width="150" height="150" fill="white"/>
</clipPath>
</defs>
</svg>
