<svg width="123" height="82" viewBox="0 0 123 82" fill="none" xmlns="http://www.w3.org/2000/svg">
<path fill-rule="evenodd" clip-rule="evenodd" d="M18 33.84C21.46 31.48 23.2 28.39 22.9 21.32V3.14C22.87 0.6 18.26 0.29 18.03 3.14L17.85 17.89C17.84 20.65 13.69 20.74 13.7 17.89L13.88 2.64C13.83 -0.0899999 9.43 -0.36 9.37 2.64C9.37 6.87 9.19 13.66 9.19 17.89C9.41 20.56 5.56 20.91 5.66 17.89L5.85 2.73C5.75 0.67 3.49 -0.06 1.95 0.9C0.31 1.95 0.64 4.05 0.57 5.82L0 23.22C0.09 28.28 1.42 32.39 5.38 34.14C5.98 34.4 6.82 34.61 7.79 34.76L6.42 77.18C6.34 79.7 8.4 81.75 10.81 81.75H11.36C14.08 81.75 16.37 79.43 16.3 76.6L15.1 34.74C16.36 34.54 17.41 34.25 18 33.84ZM113.36 44.66H114.84C114.84 55.49 114.8 68 114.45 78.78C114.3 82.91 122.04 82.75 121.9 78.35L121.61 44.66H122.88V0C106.9 2.45 112.41 33.39 113.36 44.66ZM105.56 41.11C105.56 52.02 101.72 61.33 94.04 69.02C86.34 76.72 77.04 80.57 66.13 80.57C55.27 80.57 45.96 76.73 38.25 69.02C30.55 61.33 26.68 52.02 26.68 41.11C26.68 30.23 30.54 20.96 38.25 13.25C45.98 5.55 55.27 1.68 66.13 1.68C77.04 1.68 86.34 5.54 94.04 13.25C101.71 20.95 105.56 30.23 105.56 41.11ZM89.09 41.07C89.09 47.43 86.86 52.85 82.36 57.35C77.88 61.83 72.45 64.08 66.1 64.08C59.79 64.08 54.37 61.83 49.88 57.35C45.39 52.85 43.15 47.43 43.15 41.07C43.15 34.76 45.39 29.34 49.88 24.86C54.38 20.38 59.79 18.13 66.1 18.13C78.86 18.15 89.09 28.29 89.09 41.07ZM86.19 21.06C80.66 15.53 73.96 12.78 66.1 12.78C58.26 12.78 51.58 15.53 46.09 21.06C40.56 26.59 37.78 33.27 37.78 41.07C37.78 48.9 40.56 55.57 46.09 61.13C51.59 66.67 58.26 69.45 66.1 69.45C73.95 69.45 80.65 66.67 86.19 61.13C91.7 55.58 94.47 48.9 94.47 41.07C94.47 33.26 91.71 26.59 86.19 21.06Z" fill="#F97D09"/>
</svg>
