<svg width="123" height="108" viewBox="0 0 123 108" fill="none" xmlns="http://www.w3.org/2000/svg">
<g clip-path="url(#clip0_1_2)">
<path fill-rule="evenodd" clip-rule="evenodd" d="M115.81 32.94C117.73 32.3 119.75 33.32 121.09 34.94C121.546 35.7329 121.883 36.5888 122.09 37.48C122.293 38.3036 122.357 39.1553 122.28 40C121.2 42.65 119.28 43.6 117.01 45.15C114.794 46.2939 112.494 47.2668 110.13 48.06C108.86 48.53 107.58 48.97 106.28 49.37C104.98 49.77 103.68 50.14 102.38 50.46C101.277 50.7075 100.15 50.8316 99.02 50.83C95.2925 50.8138 91.6958 49.4539 88.89 47C87.8344 46.0961 86.8327 45.1311 85.89 44.11L85.59 43.8L80.41 58.45C82.3911 59.7768 84.4629 60.9631 86.61 62C93.31 65.13 98.82 67.71 100 78.24C100.16 79.6 100.15 87.13 100.09 93.09H122.88V108H0V100.78H19.49C18.7217 100.24 18.1238 99.4921 17.767 98.6236C17.4102 97.7551 17.3093 96.8027 17.4764 95.8788C17.6434 94.9548 18.0713 94.098 18.7095 93.4094C19.3478 92.7207 20.1698 92.2292 21.0784 91.9926C21.987 91.7561 22.9444 91.7845 23.8374 92.0744C24.7304 92.3644 25.5218 92.9038 26.1181 93.6291C26.7145 94.3543 27.0908 95.235 27.2028 96.1672C27.3148 97.0994 27.1576 98.0442 26.75 98.89C26.3844 99.6507 25.8259 100.302 25.13 100.78H51.06C52.37 97.05 54.85 89.2 56 85.94C58.52 78.72 60.94 71.3 62.71 65.41C61.5985 64.0871 60.6702 62.6206 59.95 61.05C59.3454 59.7842 59.0213 58.4027 59 57C59.0015 56.4504 59.0483 55.9019 59.14 55.36L65.48 37.22C64.14 37.15 62.6 36.75 61.34 37.31C58.9 38.37 55.34 43.57 53.18 45.71L50.33 48.59C48.22 50.73 46.78 53.1 43.67 53.03L41.81 56.9L26.18 89.51L25.86 89.34C23.9125 88.4118 21.6767 88.2926 19.6415 89.0085C17.6064 89.7243 15.9375 91.217 15 93.16C14.8494 93.4849 14.7191 93.8189 14.61 94.16L6.36 90.16L4.48 94L0 91.61L2.11 87.22C1.64812 86.477 1.37961 85.6303 1.32896 84.7569C1.2783 83.8835 1.44712 83.0114 1.82 82.22L7.89 69.6L13.89 72.32C14.0449 72.4245 14.2205 72.4944 14.4048 72.5249C14.5891 72.5554 14.7779 72.5458 14.9582 72.4968C15.1385 72.4477 15.3061 72.3604 15.4496 72.2408C15.5931 72.1211 15.7091 71.9719 15.7897 71.8034C15.8704 71.6348 15.9137 71.4509 15.9169 71.2641C15.92 71.0773 15.8828 70.892 15.8079 70.7208C15.7329 70.5497 15.622 70.3967 15.4825 70.2723C15.3431 70.1479 15.1785 70.055 15 70L9 67.25L12.7 59.56L19 62.4C19.3183 62.5326 19.6762 62.5334 19.995 62.4021C20.3138 62.2708 20.5674 62.0183 20.7 61.7C20.8326 61.3817 20.8334 61.0238 20.7021 60.705C20.5708 60.3862 20.3183 60.1326 20 60L13.83 57.2L17 50.68C17.6002 49.4394 18.6675 48.4872 19.9682 48.0318C21.2689 47.5764 22.697 47.6548 23.94 48.25L38 55L39.74 51.38C39.2474 50.9647 38.8418 50.4561 38.5463 49.8835C38.2509 49.3109 38.0716 48.6856 38.0186 48.0435C37.9657 47.4014 38.0401 46.7551 38.2377 46.1418C38.4353 45.5286 38.7521 44.9604 39.17 44.47L45.74 37.82C48.91 34.6 51.91 30.17 55.81 27.97C59.4964 25.828 63.751 24.8681 68 25.22C70.07 25.22 72.26 25.45 74.32 25.65L76.73 25.86C86.21 26.47 90.62 31.45 94.06 35.33C95.59 37.05 96.9 38.52 98.32 39.2C98.99 39.51 100.04 39.07 101.24 38.57L110 35.31L115.81 33V32.94ZM88 93.13C88.08 87.58 88.14 81.39 88.06 80.18C87.98 78.97 87.2 75.94 85.98 75.38C84.3464 74.6716 82.6775 74.0475 80.98 73.51C78.61 72.73 76.67 71.94 74.33 71.29C72.61 76.96 70.33 83.8 67.81 90.29L64.22 100.7H76.65V93.1L88 93.13ZM76.43 0.609999C78.705 -0.169756 81.169 -0.20671 83.4663 0.504466C85.7637 1.21564 87.7759 2.63819 89.2125 4.56691C90.6491 6.49563 91.4359 8.83083 91.4594 11.2357C91.483 13.6405 90.7421 15.9907 89.3435 17.9472C87.945 19.9037 85.9611 21.3654 83.6781 22.1214C81.3951 22.8775 78.9309 22.8888 76.6411 22.1538C74.3512 21.4187 72.354 19.9753 70.9375 18.0318C69.521 16.0882 68.7585 13.745 68.76 11.34C68.7614 8.97537 69.5014 6.67024 70.8764 4.74655C72.2515 2.82286 74.1931 1.37668 76.43 0.609999Z" fill="#F97D09"/>
</g>
<defs>
<clipPath id="clip0_1_2">
<rect width="122.88" height="107.95" fill="white"/>
</clipPath>
</defs>
</svg>
