<svg width="182" height="237" viewBox="0 0 182 237" fill="none" xmlns="http://www.w3.org/2000/svg">
<path d="M68.2516 36.1556C71.0693 24.0562 63.5449 11.9635 51.4456 9.14586C39.3462 6.32818 27.2535 13.8525 24.4358 25.9519C21.6181 38.0513 29.1424 50.1439 41.2418 52.9616C53.3412 55.7793 65.4339 48.255 68.2516 36.1556Z" fill="#F97D09"/>
<path d="M19.045 116.896C19.064 116.896 19.082 116.895 19.101 116.895C19.117 116.894 19.224 116.893 19.298 116.893C19.332 116.893 19.361 116.893 19.368 116.892C24.226 116.846 29.404 115.638 35.258 113.206C37.669 112.204 40.197 110.994 42.865 109.57C44.379 108.761 45.933 107.892 47.543 106.945C51.342 104.692 52.594 99.782 50.338 95.983C49.648 94.821 48.709 93.901 47.63 93.243C45.183 91.75 42.014 91.622 39.377 93.188C39.178 93.307 38.988 93.415 38.791 93.531C29.187 99.198 22.495 100.966 19.368 100.893C19.342 100.892 19.323 100.89 19.298 100.889C19.248 100.887 19.213 100.883 19.164 100.88C19.044 100.873 18.912 100.864 18.897 100.864C17.027 100.741 16.924 100.371 16.73 100.237C16.535 100.049 16 99.086 16.001 97.051C15.955 94.268 17.16 90.056 19.297 86.435V98.892C19.36 98.893 19.419 98.894 19.441 98.895H19.559C22.656 98.895 29.219 96.944 38.347 91.473C38.636 91.302 38.939 91.161 39.241 91.02L40.899 81.789C39.753 80.013 39.301 77.708 39.85 75.379C40.861 71.076 44.875 68.338 48.819 69.264C52.757 70.191 55.135 74.43 54.123 78.735C53.575 81.063 52.144 82.926 50.326 84.006L48.201 91.285C49.772 92.134 51.121 93.387 52.057 94.961C53.42 97.259 53.807 99.95 53.147 102.538C52.489 105.127 50.861 107.304 48.565 108.667C46.305 109.997 44.15 111.186 42.085 112.243L39.726 120.327L34.212 119.031L34.838 115.544C29.177 117.775 24.164 118.847 19.388 118.891H19.298V119.431V138.37V224.37C19.298 231.199 24.835 236.733 31.661 236.733C38.489 236.733 44.026 231.199 44.026 224.37V146.098H48.661V224.37C48.661 231.199 54.198 236.733 61.024 236.733C67.852 236.733 73.389 231.199 73.389 224.37V138.37V119.431V88.311C74.314 88.867 75.284 89.4 76.308 89.895C80.011 91.679 84.437 92.968 89.347 92.966C89.375 92.966 89.404 92.966 89.432 92.966C92.502 92.966 95.716 92.424 98.941 91.313L106.63 66.036C103.074 70.314 99.846 73.004 97.113 74.608C93.985 76.431 91.547 76.951 89.347 76.965C87.235 76.965 85.233 76.427 83.243 75.474C80.274 74.065 77.485 71.645 75.569 69.555C74.607 68.517 73.858 67.574 73.375 66.927C73.132 66.605 72.957 66.354 72.855 66.205C72.804 66.129 72.769 66.078 72.755 66.056L72.754 66.057C71.652 64.334 69.997 63.184 68.17 62.673C67.382 62.403 66.541 62.249 65.661 62.249H27.026C26.508 62.249 26.003 62.302 25.515 62.399C24.975 62.446 24.431 62.548 23.891 62.712C16.157 65.119 10.47 70.629 6.461 76.762C2.492 82.972 0.052 89.978 0 97.052C0.005 101.644 1.128 106.602 4.606 110.677C8 114.718 13.472 116.896 19.045 116.896Z" fill="#F97D09"/>
<path d="M120.786 73.954C123.484 70.455 122.837 65.432 119.339 62.734C118.884 62.383 118.402 62.091 117.904 61.852L111.1 84.225C114.37 81.49 117.592 78.09 120.786 73.954Z" fill="#F97D09"/>
<path d="M96.306 125.994L108.371 86.326L116.005 61.226L121.247 43.992C128.343 43.651 161.617 42.607 181.65 51.741C168.783 19.79 138.302 7.323 132.996 5.362L134.134 1.62L128.808 0L109.774 62.58L101.312 90.4L90.979 124.374L96.306 125.994Z" fill="#F97D09"/>
</svg>
